# xmcd
#
# Track frame offsets:
#	150
#	48585
#	70650
#	88202
#
# Disc length: 1462 seconds
#
# Revision: 0
# Processed by: cddbd v1.5.2PL0 Copyright (c) Steve Scherf et al.
# Submitted via: audiograbber 1.83.01
#
DISCID=3105b404
DTITLE=Mariah Carey - Dreamlover
DYEAR=1993
DGENRE=R&B
TTITLE0=Dreamlover (Def Club Mix)
TTITLE1=Dreamlover (Eclipse Dub)
TTITLE2=Dreamlover
TTITLE3=Oo you think of me
EXTD=
EXTT0=
EXTT1=
EXTT2=
EXTT3=
PLAYORDER=
